# xmcd
#
# Track frame offsets:
#	150
#	8812
#	18379
#	37877
#	46523
#	61310
#	71432
#	85404
#	94932
#	113318
#
# Disc length: 1638 seconds
#
# Revision: 1
# Processed by: cddbd v1.5.2PL0 Copyright (c) Steve Scherf et al.
# Submitted via: audiograbber 1.83.01
#
DISCID=6a06640a
DTITLE=Dale Watson - Christmas Time In Texas
DYEAR=1900
DGENRE=Country
TTITLE0=Honky Tonk Christmas
TTITLE1=Christmas Love
TTITLE2=Santa Bring Her Back
TTITLE3=Christmas Without An Angel
TTITLE4=Christmas Time In Texas
TTITLE5=Christmas With You
TTITLE6=The Christmas Song
TTITLE7=Hot Texas Christmas Day
TTITLE8=Santa And My Semi
TTITLE9=Silver Bells
EXTD=
EXTT0=
EXTT1=
EXTT2=
EXTT3=
EXTT4=
EXTT5=
EXTT6=
EXTT7=
EXTT8=
EXTT9=
PLAYORDER=
